# Blender 4.0.2
# www.blender.org
mtllib mountainBottom2.mtl
o Landscape
v 6.284626 0.004200 7.783394
v 10.974602 0.036597 7.783394
v 7.983929 0.293420 7.783394
v 9.889354 0.237212 7.783394
v 9.356119 0.302092 7.783394
v 10.323401 0.116521 7.783394
v 8.068992 0.314961 7.783394
v 11.134543 -0.000808 7.783394
v 9.117042 0.366590 7.783394
v 8.200321 0.326726 7.783394
v 8.854999 0.363014 7.783394
v 6.726667 0.061578 7.783394
v 7.281356 0.228056 7.783394
v 11.916581 0.004045 7.156972
v 12.920706 -0.000003 1.211512
v 13.035866 -0.003426 5.906010
v 13.414955 0.003667 2.793580
v 13.634260 -0.004286 4.018732
v 7.003124 0.541375 -0.000282
v 7.544732 0.740739 -0.000281
v 9.454912 0.605845 -0.000281
v 10.409671 0.314858 -0.000281
v 5.619473 0.026591 -0.000281
v 8.948322 0.899106 -0.000280
v 7.383042 0.749203 -0.000281
v 11.296692 0.114104 -0.000282
v 10.811207 0.221015 -0.000282
v 11.676815 0.049002 -0.000281
v 11.836054 -0.000680 -0.000282
v 6.365047 0.304422 -0.000281
v 5.429311 0.000000 -0.000281
v 11.071871 0.173854 -0.000281
v 9.846266 0.452835 -0.000282
v 5.721454 0.076751 -0.000281
v 11.557865 0.096544 -0.000281
v 8.858978 0.898001 -0.000281
v 8.387495 0.822760 -0.000281
v 6.141584 0.187502 -0.000281
v 8.113147 0.772068 -0.000282
v 6.210105 0.221723 -0.000280
v 9.380953 0.632881 -0.000280
v 6.270119 0.271793 -0.000280
v -0.000461 -0.003311 4.661145
v -0.000461 0.007320 2.674773
v -0.000461 -0.000967 0.514378
v -0.000461 0.004200 7.783394
v -0.000461 -0.001590 7.552686
v -0.000461 0.000000 -0.000281
v -0.000461 -0.003024 5.143068
v -0.000461 -0.002737 5.624991
v -0.000461 -0.002450 6.106915
v -0.000461 -0.002164 6.588840
v -0.000461 -0.001877 7.070763
v -0.000461 -0.001539 4.330083
v -0.000461 0.000233 3.999021
v -0.000461 0.002005 3.667959
v -0.000461 0.003777 3.336897
v -0.000461 0.005549 3.005835
v -0.000461 0.005939 2.314707
v -0.000461 0.004558 1.954641
v -0.000461 0.003177 1.594576
v -0.000461 0.001796 1.234510
v -0.000461 0.000415 0.874444
v -0.000461 -0.000625 7.591138
v -0.000461 0.000340 7.629589
v -0.000461 0.001305 7.668040
v -0.000461 0.002270 7.706492
v -0.000461 0.003235 7.744943
v -0.000461 -0.000805 0.428602
v -0.000461 -0.000644 0.342825
v -0.000461 -0.000483 0.257049
v -0.000461 -0.000322 0.171272
v -0.000461 -0.000161 0.085496
v 4.524349 0.000000 -0.000281
v 3.619387 0.000000 -0.000281
v 2.714425 0.000000 -0.000281
v 1.809463 0.000000 -0.000281
v 0.904501 0.000000 -0.000281
v 1.047053 0.004200 7.783394
v 2.094568 0.004200 7.783394
v 3.142083 0.004200 7.783394
v 4.189597 0.004200 7.783394
v 5.237112 0.004200 7.783394
v 6.284626 -10.079449 7.783394
v 10.974602 -10.047054 7.783394
v 7.983929 -9.790230 7.783394
v 9.889354 -9.846438 7.783394
v 9.356119 -9.781558 7.783394
v 10.323401 -9.967129 7.783394
v 8.068992 -9.768690 7.783394
v 11.134543 -10.084458 7.783394
v 9.117042 -9.717061 7.783394
v 8.200321 -9.756926 7.783394
v 8.854999 -9.720637 7.783394
v 6.726667 -10.022073 7.783394
v 7.281356 -9.855595 7.783394
v 11.916581 -10.079605 7.156972
v 12.920706 -10.083653 1.211512
v 13.035866 -10.087076 5.906010
v 13.414955 -10.079983 2.793580
v 13.634260 -10.087935 4.018732
v 7.003124 -9.542276 -0.000282
v 7.544732 -9.342912 -0.000281
v 9.454912 -9.477806 -0.000281
v 10.409671 -9.768793 -0.000281
v 5.619473 -10.057059 -0.000281
v 8.948322 -9.184545 -0.000280
v 7.383042 -9.334448 -0.000281
v 11.296692 -9.969546 -0.000282
v 10.811207 -9.862636 -0.000282
v 11.676815 -10.034648 -0.000281
v 11.836054 -10.084330 -0.000282
v 6.365047 -9.779228 -0.000281
v 5.429311 -10.083650 -0.000281
v 11.071871 -9.909796 -0.000281
v 9.846266 -9.630816 -0.000282
v 5.721454 -10.006900 -0.000281
v 11.557865 -9.987106 -0.000281
v 8.858978 -9.185649 -0.000281
v 8.387495 -9.260891 -0.000281
v 6.141584 -9.896149 -0.000281
v 8.113147 -9.311584 -0.000282
v 6.210105 -9.861927 -0.000280
v 9.380953 -9.450770 -0.000280
v 6.270119 -9.811857 -0.000280
v -0.000461 -10.086961 4.661145
v -0.000461 -10.076329 2.674773
v -0.000461 -10.084617 0.514378
v -0.000461 -10.079449 7.783394
v -0.000461 -10.085240 7.552686
v -0.000461 -10.083650 -0.000281
v -0.000461 -10.086675 5.143068
v -0.000461 -10.086387 5.624991
v -0.000461 -10.086100 6.106915
v -0.000461 -10.085814 6.588840
v -0.000461 -10.085526 7.070763
v -0.000461 -10.085189 4.330083
v -0.000461 -10.083416 3.999021
v -0.000461 -10.081645 3.667959
v -0.000461 -10.079873 3.336897
v -0.000461 -10.078102 3.005835
v -0.000461 -10.077711 2.314707
v -0.000461 -10.079091 1.954641
v -0.000461 -10.080473 1.594576
v -0.000461 -10.081855 1.234510
v -0.000461 -10.083235 0.874444
v -0.000461 -10.084274 7.591138
v -0.000461 -10.083310 7.629589
v -0.000461 -10.082345 7.668040
v -0.000461 -10.081380 7.706492
v -0.000461 -10.080415 7.744943
v -0.000461 -10.084455 0.428602
v -0.000461 -10.084293 0.342825
v -0.000461 -10.084133 0.257049
v -0.000461 -10.083972 0.171272
v -0.000461 -10.083811 0.085496
v 4.524349 -10.083650 -0.000281
v 3.619387 -10.083650 -0.000281
v 2.714425 -10.083650 -0.000281
v 1.809463 -10.083650 -0.000281
v 0.904501 -10.083650 -0.000281
v 1.047053 -10.079449 7.783394
v 2.094568 -10.079449 7.783394
v 3.142083 -10.079449 7.783394
v 4.189597 -10.079449 7.783394
v 5.237112 -10.079449 7.783394
vn -0.0000 -0.0000 -1.0000
vn -1.0000 -0.0000 -0.0000
vn -0.0000 -0.0000 1.0000
vn 0.6252 -0.0000 0.7805
vn 0.9532 -0.0000 0.3022
vn 0.7452 -0.0000 0.6668
vn 0.7451 -0.0000 -0.6669
vn 0.9545 -0.0000 -0.2982
vn 0.9844 -0.0000 -0.1762
vt 0.008976 0.358135
vt 0.008097 0.362942
vt 0.012246 0.008182
vt 0.010172 0.008140
vt 0.008097 0.008097
vt 0.008098 0.035227
vt 0.009461 0.179581
vt 0.011420 0.192102
vt 0.008102 0.143746
vt 0.008103 0.170875
vt 0.196688 0.200341
vt 0.196686 0.168937
vt 0.011184 0.339915
vt 0.010127 0.346695
vt 0.008101 0.116616
vt 0.132608 0.010628
vt 0.120932 0.010391
vt 0.019302 0.288913
vt 0.018823 0.291149
vt 0.008100 0.089486
vt 0.144285 0.010865
vt 0.012026 0.194133
vt 0.012911 0.195898
vt 0.008099 0.062357
vt 0.155962 0.011102
vt 0.008573 0.176558
vt 0.167638 0.011338
vt 0.009817 0.354537
vt 0.196682 0.043324
vt 0.196681 0.011921
vt 0.179315 0.011575
vt 0.021208 0.233793
vt 0.021762 0.250812
vt 0.146582 0.485555
vt 0.152915 0.458674
vt 0.196683 0.074728
vt 0.112945 0.010227
vt 0.013488 0.198722
vt 0.105370 0.418828
vt 0.151092 0.401817
vt 0.196684 0.106131
vt 0.104959 0.010063
vt 0.181519 0.368872
vt 0.196685 0.137534
vt 0.096972 0.009899
vt 0.012018 0.332069
vt 0.660915 0.259979
vt 0.672691 0.259979
vt 0.088986 0.009735
vt 0.249199 0.205241
vt 0.252385 0.205125
vt 0.080999 0.009571
vt 0.017680 0.217691
vt 0.151901 0.453916
vt 0.073013 0.009407
vt 0.064268 0.009231
vt 0.016117 0.302985
vt 0.146582 0.435023
vt 0.055523 0.009055
vt 0.022659 0.259003
vt 0.271725 0.204806
vt 0.286810 0.207003
vt 0.046779 0.008879
vt 0.021357 0.228940
vt 0.227543 0.207021
vt 0.233624 0.206333
vt 0.038034 0.008703
vt 0.013677 0.319968
vt 0.297783 0.207021
vt 0.029289 0.008527
vt 0.023991 0.273086
vt 0.254643 0.205370
vt 0.191940 0.011830
vt 0.190991 0.011812
vt 0.192888 0.011848
vt 0.024010 0.275764
vt 0.193836 0.011867
vt 0.411220 0.256056
vt 0.409649 0.245737
vt 0.194785 0.011885
vt 0.409841 0.234191
vt 0.409027 0.228535
vt 0.195733 0.011903
vt 0.037458 0.396054
vt 0.020544 0.008351
vt 0.018470 0.008309
vt 0.075839 0.411646
vt 0.016395 0.008266
vt 0.014321 0.008224
s 0
usemtl Material.040
f 28/1/1 29/2/1 112/2/1 111/1/1
f 72/3/2 73/4/2 156/4/2 155/3/2
f 48/5/1 78/6/1 161/6/1 131/5/1
f 34/7/1 38/8/1 121/8/1 117/7/1
f 74/9/1 31/10/1 114/10/1 157/9/1
f 1/11/3 83/12/3 166/12/3 84/11/3
f 32/13/1 26/14/1 109/14/1 115/13/1
f 75/15/1 74/9/1 157/9/1 158/15/1
f 49/16/2 43/17/2 126/17/2 132/16/2
f 41/18/1 21/19/1 104/19/1 124/18/1
f 76/20/1 75/15/1 158/15/1 159/20/1
f 50/21/2 49/16/2 132/16/2 133/21/2
f 40/22/1 42/23/1 125/23/1 123/22/1
f 77/24/1 76/20/1 159/20/1 160/24/1
f 51/25/2 50/21/2 133/21/2 134/25/2
f 23/26/1 34/7/1 117/7/1 106/26/1
f 78/6/1 77/24/1 160/24/1 161/6/1
f 52/27/2 51/25/2 134/25/2 135/27/2
f 26/14/1 35/28/1 118/28/1 109/14/1
f 79/29/3 46/30/3 129/30/3 162/29/3
f 53/31/2 52/27/2 135/27/2 136/31/2
f 20/32/1 39/33/1 122/33/1 103/32/1
f 14/34/4 8/35/4 91/35/4 97/34/4
f 80/36/3 79/29/3 162/29/3 163/36/3
f 43/17/2 54/37/2 137/37/2 126/17/2
f 42/23/1 30/38/1 113/38/1 125/23/1
f 18/39/5 16/40/5 99/40/5 101/39/5
f 81/41/3 80/36/3 163/36/3 164/41/3
f 54/37/2 55/42/2 138/42/2 137/37/2
f 38/8/1 40/22/1 123/22/1 121/8/1
f 16/40/6 14/43/6 97/43/6 99/40/6
f 82/44/3 81/41/3 164/41/3 165/44/3
f 55/42/2 56/45/2 139/45/2 138/42/2
f 27/46/1 32/13/1 115/13/1 110/46/1
f 4/47/3 5/48/3 88/48/3 87/47/3
f 83/12/3 82/44/3 165/44/3 166/12/3
f 56/45/2 57/49/2 140/49/2 139/45/2
f 35/28/1 28/1/1 111/1/1 118/28/1
f 10/50/3 7/51/3 90/51/3 93/50/3
f 57/49/2 58/52/2 141/52/2 140/49/2
f 30/38/1 19/53/1 102/53/1 113/38/1
f 8/35/3 2/54/3 85/54/3 91/35/3
f 44/55/2 59/56/2 142/56/2 127/55/2
f 21/19/1 33/57/1 116/57/1 104/19/1
f 2/54/3 6/58/3 89/58/3 85/54/3
f 59/56/2 60/59/2 143/59/2 142/56/2
f 39/33/1 37/60/1 120/60/1 122/33/1
f 13/61/3 12/62/3 95/62/3 96/61/3
f 60/59/2 61/63/2 144/63/2 143/59/2
f 19/53/1 25/64/1 108/64/1 102/53/1
f 9/65/3 11/66/3 94/66/3 92/65/3
f 61/63/2 62/67/2 145/67/2 144/63/2
f 22/68/1 27/46/1 110/46/1 105/68/1
f 12/62/3 1/69/3 84/69/3 95/62/3
f 62/67/2 63/70/2 146/70/2 145/67/2
f 37/60/1 36/71/1 119/71/1 120/60/1
f 7/51/3 3/72/3 86/72/3 90/51/3
f 64/73/2 47/74/2 130/74/2 147/73/2
f 33/57/1 22/68/1 105/68/1 116/57/1
f 3/72/3 13/61/3 96/61/3 86/72/3
f 65/75/2 64/73/2 147/73/2 148/75/2
f 24/76/1 41/18/1 124/18/1 107/76/1
f 11/66/3 10/50/3 93/50/3 94/66/3
f 66/77/2 65/75/2 148/75/2 149/77/2
f 31/10/1 23/26/1 106/26/1 114/10/1
f 6/78/3 4/79/3 87/79/3 89/78/3
f 67/80/2 66/77/2 149/77/2 150/80/2
f 36/71/1 24/76/1 107/76/1 119/71/1
f 5/81/3 9/82/3 92/82/3 88/81/3
f 68/83/2 67/80/2 150/80/2 151/83/2
f 47/74/2 53/31/2 136/31/2 130/74/2
f 29/2/7 15/84/7 98/84/7 112/2/7
f 45/85/2 69/86/2 152/86/2 128/85/2
f 58/52/2 44/55/2 127/55/2 141/52/2
f 15/84/8 17/87/8 100/87/8 98/84/8
f 69/86/2 70/88/2 153/88/2 152/86/2
f 63/70/2 45/85/2 128/85/2 146/70/2
f 17/87/9 18/39/9 101/39/9 100/87/9
f 70/88/2 71/89/2 154/89/2 153/88/2
f 46/30/2 68/83/2 151/83/2 129/30/2
f 25/64/1 20/32/1 103/32/1 108/64/1
f 71/89/2 72/3/2 155/3/2 154/89/2
f 73/4/2 48/5/2 131/5/2 156/4/2
