# Blender 4.0.2
# www.blender.org
mtllib mountainBottom1.mtl
o Landscape.004
v 5.660582 0.002894 8.065768
v 10.903287 0.087899 8.071253
v 9.674912 0.574951 7.817716
v 7.313425 0.480150 7.838038
v 8.460676 0.899621 7.617645
v 6.003824 0.255272 7.576639
v 7.870175 0.849650 7.598326
v 9.196489 0.959382 7.623252
v 10.878815 0.361736 7.564965
v 12.197705 -0.004896 7.295028
v 13.255632 -0.001195 4.956542
v 13.175607 0.003310 3.029163
v 12.304026 0.010745 1.312252
v 11.085414 0.188506 0.652585
v 6.616683 0.395521 0.481401
v 6.041970 0.000128 -0.010143
v 9.908237 0.224581 0.154756
v 10.177229 0.025546 -0.240927
v 7.903153 0.445963 0.042804
v 9.079062 0.324718 0.029271
v -0.004587 0.002893 8.065724
v -0.004587 -0.007401 6.714283
v -0.004587 -0.009717 4.442311
v -0.004587 -0.009072 1.688284
v -0.004587 0.000128 -0.010089
v -0.004587 -0.001186 0.232536
v -0.004587 -0.002500 0.475160
v -0.004587 -0.003815 0.717785
v -0.004587 -0.005129 0.960410
v -0.004587 -0.006443 1.203035
v -0.004587 -0.007758 1.445659
v -0.004587 0.001423 7.872662
v -0.004587 -0.000048 7.679598
v -0.004587 -0.001518 7.486535
v -0.004587 -0.002989 7.293472
v -0.004587 -0.004460 7.100410
v -0.004587 -0.005930 6.907346
v -0.004587 -0.007732 6.389715
v -0.004587 -0.008062 6.065148
v -0.004587 -0.008393 5.740581
v -0.004587 -0.008724 5.416013
v -0.004587 -0.009055 5.091445
v -0.004587 -0.009386 4.766878
v -0.004587 -0.009624 4.048878
v -0.004587 -0.009532 3.655446
v -0.004587 -0.009440 3.262013
v -0.004587 -0.009348 2.868581
v -0.004587 -0.009256 2.475149
v -0.004587 -0.009164 2.081716
v 0.804723 0.002894 8.065731
v 1.614033 0.002894 8.065738
v 2.423343 0.002894 8.065743
v 3.232658 0.010652 8.066074
v 4.042045 0.009127 8.066145
v 4.851274 0.003053 8.065768
v 5.178181 0.000506 -0.010154
v 4.314320 0.014140 -0.011325
v 3.450577 0.000680 -0.010165
v 2.586794 0.000169 -0.010116
v 1.723000 0.000128 -0.010104
v 0.859207 0.000128 -0.010097
v 5.660582 -10.094819 8.065768
v 10.903287 -10.009814 8.071253
v 9.674912 -9.522763 7.817716
v 7.313425 -9.617563 7.838038
v 8.460676 -9.198092 7.617645
v 6.003824 -9.842442 7.576639
v 7.870175 -9.248063 7.598326
v 9.196489 -9.138331 7.623252
v 10.878815 -9.735977 7.564965
v 12.197705 -10.102610 7.295028
v 13.255632 -10.098909 4.956542
v 13.175607 -10.094404 3.029163
v 12.304026 -10.086969 1.312252
v 11.085414 -9.909208 0.652585
v 6.616683 -9.702192 0.481401
v 6.041970 -10.097586 -0.010143
v 9.908237 -9.873133 0.154756
v 10.177229 -10.072168 -0.240927
v 7.903153 -9.651751 0.042804
v 9.079062 -9.772995 0.029271
v -0.004587 -10.094820 8.065724
v -0.004587 -10.105114 6.714283
v -0.004587 -10.107430 4.442311
v -0.004587 -10.106785 1.688284
v -0.004587 -10.097585 -0.010089
v -0.004587 -10.098900 0.232536
v -0.004587 -10.100213 0.475160
v -0.004587 -10.101528 0.717785
v -0.004587 -10.102843 0.960410
v -0.004587 -10.104156 1.203035
v -0.004587 -10.105472 1.445659
v -0.004587 -10.096291 7.872662
v -0.004587 -10.097761 7.679598
v -0.004587 -10.099232 7.486535
v -0.004587 -10.100702 7.293472
v -0.004587 -10.102173 7.100410
v -0.004587 -10.103644 6.907346
v -0.004587 -10.105446 6.389715
v -0.004587 -10.105776 6.065148
v -0.004587 -10.106107 5.740581
v -0.004587 -10.106438 5.416013
v -0.004587 -10.106769 5.091445
v -0.004587 -10.107099 4.766878
v -0.004587 -10.107338 4.048878
v -0.004587 -10.107245 3.655446
v -0.004587 -10.107154 3.262013
v -0.004587 -10.107061 2.868581
v -0.004587 -10.106970 2.475149
v -0.004587 -10.106878 2.081716
v 0.804723 -10.094820 8.065731
v 1.614033 -10.094820 8.065738
v 2.423343 -10.094819 8.065743
v 3.232658 -10.087062 8.066074
v 4.042045 -10.088587 8.066145
v 4.851274 -10.094661 8.065768
v 5.178181 -10.097208 -0.010154
v 4.314320 -10.083574 -0.011325
v 3.450577 -10.097034 -0.010165
v 2.586794 -10.097544 -0.010116
v 1.723000 -10.097585 -0.010104
v 0.859207 -10.097585 -0.010097
vn -1.0000 -0.0000 -0.0000
vn -0.0000 -0.0000 -1.0000
vn -0.0000 -0.0000 1.0000
vn 0.2055 -0.0000 0.9787
vn 0.8917 -0.0000 -0.4527
vn -0.0004 -0.0000 1.0000
vn 0.6500 -0.0000 -0.7600
vn -0.8270 -0.0000 -0.5622
vn -0.0001 -0.0000 1.0000
vn -0.9988 -0.0000 0.0483
vn 0.0005 -0.0000 1.0000
vn 0.3955 -0.0000 0.9185
vn 0.9111 -0.0000 0.4122
vn -0.3765 -0.0000 0.9264
vn -0.3227 -0.0000 -0.9465
vn -0.0327 -0.0000 0.9995
vn 0.7013 -0.0000 -0.7128
vn 0.0014 -0.0000 -1.0000
vn -0.0013 -0.0000 -1.0000
vn 0.8186 -0.0000 0.5744
vn 0.1496 -0.0000 -0.9887
vn -0.0001 -0.0000 -1.0000
vn 0.5143 -0.0000 0.8576
vn -0.0076 -0.0000 1.0000
vn 0.9991 -0.0000 -0.0415
vn -0.0115 -0.0000 -0.9999
vn 0.4761 -0.0000 -0.8794
vn -0.1957 -0.0000 0.9807
vt 0.227428 0.463942
vt 0.222754 0.464609
vt 0.222754 0.491971
vt 0.232102 0.463274
vt 0.236776 0.462607
vt 0.241450 0.461939
vt 0.216842 0.034023
vt 0.216524 0.008389
vt 0.246124 0.461271
vt 0.217161 0.059657
vt 0.202094 0.353978
vt 0.201007 0.314713
vt 0.250798 0.460604
vt 0.217480 0.085291
vt 0.212876 0.008971
vt 0.452504 0.124583
vt 0.467911 0.067488
vt 0.217607 0.110910
vt 0.209227 0.009553
vt 0.205975 0.610445
vt 0.188799 0.593491
vt 0.399179 0.188098
vt 0.410288 0.196422
vt 0.217966 0.136549
vt 0.205579 0.010135
vt 0.218754 0.353715
vt 0.218432 0.162192
vt 0.201931 0.010717
vt 0.198283 0.011298
vt 0.194635 0.011880
vt 0.190987 0.012462
vt 0.184799 0.013436
vt 0.189101 0.257726
vt 0.202883 0.240022
vt 0.162491 0.437723
vt 0.206812 0.397206
vt 0.187299 0.299468
vt 0.178611 0.014411
vt 0.205481 0.563985
vt 0.172423 0.015385
vt 0.188427 0.276284
vt 0.166236 0.016359
vt 0.324965 0.434035
vt 0.347330 0.434044
vt 0.160048 0.017334
vt 0.423857 0.157920
vt 0.302415 0.433744
vt 0.153860 0.018308
vt 0.280244 0.434032
vt 0.297398 0.319528
vt 0.309212 0.321072
vt 0.203114 0.199721
vt 0.218754 0.187826
vt 0.379608 0.202737
vt 0.257892 0.434043
vt 0.321025 0.322616
vt 0.255473 0.459936
vt 0.235533 0.434044
vt 0.293109 0.454502
vt 0.285582 0.455589
vt 0.222754 0.519332
vt 0.278054 0.456676
vt 0.147672 0.019282
vt 0.466262 0.016965
vt 0.352008 0.218829
vt 0.270527 0.457763
vt 0.263000 0.458849
s 0
usemtl Material.018
f 26/1/1 25/2/1 86/2/1 87/1/1
f 25/2/2 61/3/2 122/3/2 86/2/2
f 27/4/1 26/1/1 87/1/1 88/4/1
f 28/5/1 27/4/1 88/4/1 89/5/1
f 29/6/1 28/5/1 89/5/1 90/6/1
f 50/7/3 21/8/3 82/8/3 111/7/3
f 30/9/1 29/6/1 90/6/1 91/9/1
f 51/10/3 50/7/3 111/7/3 112/10/3
f 9/11/4 3/12/4 64/12/4 70/11/4
f 31/13/1 30/9/1 91/9/1 92/13/1
f 52/14/3 51/10/3 112/10/3 113/14/3
f 21/8/1 32/15/1 93/15/1 82/8/1
f 13/16/5 12/17/5 73/17/5 74/16/5
f 53/18/6 52/14/6 113/14/6 114/18/6
f 32/15/1 33/19/1 94/19/1 93/15/1
f 16/20/7 15/21/7 76/21/7 77/20/7
f 17/22/8 18/23/8 79/23/8 78/22/8
f 54/24/9 53/18/9 114/18/9 115/24/9
f 33/19/1 34/25/1 95/25/1 94/19/1
f 2/26/10 9/11/10 70/11/10 63/26/10
f 55/27/11 54/24/11 115/24/11 116/27/11
f 34/25/1 35/28/1 96/28/1 95/25/1
f 35/28/1 36/29/1 97/29/1 96/28/1
f 36/29/1 37/30/1 98/30/1 97/29/1
f 22/31/1 38/32/1 99/32/1 83/31/1
f 7/33/12 4/34/12 65/34/12 68/33/12
f 11/35/13 10/36/13 71/36/13 72/35/13
f 3/12/14 8/37/14 69/37/14 64/12/14
f 38/32/1 39/38/1 100/38/1 99/32/1
f 15/21/15 19/39/15 80/39/15 76/21/15
f 39/38/1 40/40/1 101/40/1 100/38/1
f 5/41/16 7/33/16 68/33/16 66/41/16
f 40/40/1 41/42/1 102/42/1 101/40/1
f 56/43/2 16/44/2 77/44/2 117/43/2
f 41/42/1 42/45/1 103/45/1 102/42/1
f 18/23/17 14/46/17 75/46/17 79/23/17
f 57/47/18 56/43/18 117/43/18 118/47/18
f 42/45/1 43/48/1 104/48/1 103/45/1
f 58/49/19 57/47/19 118/47/19 119/49/19
f 23/50/1 44/51/1 105/51/1 84/50/1
f 6/52/20 1/53/20 62/53/20 67/52/20
f 20/54/21 17/22/21 78/22/21 81/54/21
f 59/55/22 58/49/22 119/49/22 120/55/22
f 44/51/1 45/56/1 106/56/1 105/51/1
f 24/57/1 31/13/1 92/13/1 85/57/1
f 60/58/2 59/55/2 120/55/2 121/58/2
f 10/36/23 2/26/23 63/26/23 71/36/23
f 45/59/1 46/60/1 107/60/1 106/59/1
f 8/37/24 5/41/24 66/41/24 69/37/24
f 37/30/1 22/31/1 83/31/1 98/30/1
f 61/3/2 60/61/2 121/61/2 122/3/2
f 46/60/1 47/62/1 108/62/1 107/60/1
f 43/48/1 23/63/1 84/63/1 104/48/1
f 12/17/25 11/64/25 72/64/25 73/17/25
f 19/65/26 20/54/26 81/54/26 80/65/26
f 47/62/1 48/66/1 109/66/1 108/62/1
f 49/67/1 24/57/1 85/57/1 110/67/1
f 14/46/27 13/16/27 74/16/27 75/46/27
f 48/66/1 49/67/1 110/67/1 109/66/1
f 1/53/3 55/27/3 116/27/3 62/53/3
f 4/34/28 6/52/28 67/52/28 65/34/28
