# Blender 4.0.2
# www.blender.org
mtllib waterWalls.mtl
o Cube.001
v -1.051962 -1.051962 1.051962
v -1.028471 1.051962 1.028471
v -1.051962 -1.051962 -1.051962
v -1.028471 1.051962 -1.028471
v 1.051962 -1.051962 1.051962
v 1.028471 1.051962 1.028471
v 1.051962 -1.051962 -1.051962
v 1.028471 1.051962 -1.028471
v -1.051962 1.051962 1.051962
v -1.051962 1.051962 -1.051962
v 1.051962 1.051962 -1.051962
v 1.051962 1.051962 1.051962
v -1.028471 -1.038758 1.028471
v -1.028471 -1.038758 -1.028471
v 1.028471 -1.038758 -1.028471
v 1.028471 -1.038758 1.028471
vn -1.0000 -0.0000 -0.0000
vn -0.0000 -0.0000 -1.0000
vn 1.0000 -0.0000 -0.0000
vn -0.0000 -0.0000 1.0000
vn -0.0000 -1.0000 -0.0000
vn -0.0000 1.0000 -0.0000
vt 0.012915 0.320418
vt 0.012915 0.012915
vt 0.320418 0.012915
vt 0.320418 0.320418
vt 0.012915 0.653751
vt 0.012915 0.346248
vt 0.320418 0.346248
vt 0.320418 0.653751
vt 0.653752 0.320418
vt 0.346248 0.320418
vt 0.346248 0.012915
vt 0.653751 0.012915
vt 0.653751 0.653751
vt 0.346248 0.653752
vt 0.346248 0.346248
vt 0.653751 0.346248
vt 0.320418 0.987085
vt 0.012915 0.987085
vt 0.012915 0.679582
vt 0.320418 0.679582
vt 0.650318 0.683015
vt 0.650318 0.983651
vt 0.349682 0.683015
vt 0.349682 0.983651
vt 0.346248 0.987085
vt 0.346248 0.679582
vt 0.653751 0.987085
vt 0.653751 0.679582
s 0
usemtl Material.001
f 1/1/1 9/2/1 10/3/1 3/4/1
f 3/5/2 10/6/2 11/7/2 7/8/2
f 7/9/3 11/10/3 12/11/3 5/12/3
f 5/13/4 12/14/4 9/15/4 1/16/4
f 3/17/5 7/18/5 5/19/5 1/20/5
f 6/21/1 8/22/1 15/22/1 16/21/1
f 2/23/6 4/24/6 10/25/6 9/26/6
f 4/24/6 8/22/6 11/27/6 10/25/6
f 8/22/6 6/21/6 12/28/6 11/27/6
f 6/21/6 2/23/6 9/26/6 12/28/6
f 15/22/6 14/24/6 13/23/6 16/21/6
f 4/24/3 2/23/3 13/23/3 14/24/3
f 2/23/2 6/21/2 16/21/2 13/23/2
f 8/22/4 4/24/4 14/24/4 15/22/4
